<?xml version="1.0" standalone="no"?>
<!DOCTYPE svg PUBLIC "-//W3C//DTD SVG 20010904//EN"
 "http://www.w3.org/TR/2001/REC-SVG-20010904/DTD/svg10.dtd">
<svg version="1.0" xmlns="http://www.w3.org/2000/svg"
 width="300.000000pt" height="300.000000pt" viewBox="0 0 300.000000 300.000000"
 preserveAspectRatio="xMidYMid meet">
<metadata>
Created by potrace 1.14, written by Peter Selinger 2001-2017
</metadata>
<g transform="translate(0.000000,300.000000) scale(0.100000,-0.100000)"
fill="#000000" stroke="none">
<path d="M2757 2995 c-1 -2 -27 -5 -57 -9 -96 -11 -185 -27 -230 -41 -18 -6
-38 -10 -88 -21 -28 -6 -230 -77 -286 -101 -78 -34 -267 -133 -311 -163 -24
-16 -46 -30 -49 -30 -9 0 -142 -97 -226 -165 -41 -33 -114 -100 -163 -148
l-88 -88 -77 -4 c-42 -3 -88 -7 -102 -10 -13 -2 -42 -7 -65 -11 -46 -7 -70
-12 -70 -14 0 -1 -11 -3 -25 -6 -25 -4 -141 -39 -170 -51 -8 -3 -20 -7 -26 -8
-23 -5 -229 -108 -232 -117 -2 -4 -8 -8 -13 -8 -25 0 -213 -144 -286 -218 -56
-57 -37 -119 39 -127 57 -6 151 -19 220 -30 24 -4 54 -8 68 -10 75 -10 118
-17 143 -21 l28 -6 -36 -39 c-64 -71 -82 -48 380 -509 408 -407 416 -415 455
-414 31 0 44 7 66 33 25 31 28 32 35 14 4 -11 11 -51 15 -89 8 -69 10 -82 13
-86 1 -2 4 -21 6 -43 4 -36 9 -73 20 -135 2 -14 7 -47 10 -75 7 -58 23 -80 64
-83 23 -2 39 8 75 44 48 47 167 197 179 224 4 8 16 29 27 45 11 17 40 71 64
120 41 84 50 105 56 130 1 6 5 15 10 20 10 13 59 183 65 223 2 17 6 39 9 49 8
26 16 97 21 176 l4 67 88 88 c94 95 118 121 173 192 19 25 38 50 43 55 174
219 369 637 421 905 3 14 7 35 10 47 2 11 8 43 12 70 3 26 8 57 11 68 2 11 6
76 9 145 6 118 5 126 -16 148 -20 21 -29 22 -121 21 -54 -2 -100 -3 -102 -4z
m-552 -550 c86 -15 172 -81 215 -162 18 -36 39 -135 34 -164 -14 -86 -41 -144
-93 -197 -81 -83 -218 -114 -327 -73 -48 19 -143 88 -144 105 0 5 -6 17 -13
25 -63 75 -57 266 10 345 36 41 77 78 107 94 33 17 131 41 156 37 8 -1 33 -6
55 -10z"/>
<path d="M500 982 c-72 -24 -129 -61 -173 -112 -41 -49 -119 -204 -172 -345
-20 -55 -41 -108 -46 -117 -5 -10 -9 -22 -9 -27 0 -5 -5 -22 -12 -38 -6 -15
-12 -32 -14 -38 -1 -5 -19 -59 -38 -120 -40 -122 -40 -159 0 -177 20 -9 39 -7
94 11 39 12 78 24 87 26 10 2 32 9 48 16 17 6 35 13 40 14 61 14 317 116 435
173 171 83 249 190 256 350 6 150 -61 270 -196 353 -74 46 -211 60 -300 31z"/>
</g>
</svg>
